<?xml version="1.0" encoding="utf-8"?>
<!-- Generator: Adobe Illustrator 12.0.0, SVG Export Plug-In  -->
<!DOCTYPE svg PUBLIC "-//W3C//DTD SVG 1.1//EN" "http://www.w3.org/Graphics/SVG/1.1/DTD/svg11.dtd" [
	<!ENTITY ns_flows "http://ns.adobe.com/Flows/1.0/">
	<!ENTITY ns_svg "http://www.w3.org/2000/svg">
	<!ENTITY ns_xlink "http://www.w3.org/1999/xlink">
]>
<svg  version="1.1" xmlns="&ns_svg;" xmlns:xlink="&ns_xlink;" xmlns:a="http://ns.adobe.com/AdobeSVGViewerExtensions/3.0/"
	 width="18" height="18" viewBox="0.955 -0.134 18 18" enable-background="new 0.955 -0.134 18 18" xml:space="preserve">
<defs>
</defs>
<path id="TexteAide-blanc_1_" display="none" fill="#FFFFFF" d="M19.349,8.948L19.349,8.948c-0.174-0.479-0.437-0.917-0.758-1.298
	c-0.241-0.284-0.524-0.546-0.824-0.764l-0.045-0.022c-0.179-0.131-0.37-0.24-0.576-0.339c-0.099-0.611-0.274-1.2-0.525-1.745
	L16.6,4.715c-0.356-0.732-0.809-1.398-1.37-1.954c-1.282-1.276-3.033-2.007-4.845-2.007c-1.331,0-2.64,0.392-3.748,1.134
	C6.162,2.193,5.732,2.575,5.35,2.99L5.305,3.034c-0.31,0.338-0.583,0.72-0.823,1.112C4.03,4.255,3.593,4.408,3.184,4.626
	C2.649,4.91,2.174,5.271,1.771,5.708C1.308,6.187,0.937,6.765,0.685,7.409c-0.25,0.612-0.381,1.287-0.381,1.975
	c0,1.451,0.595,2.794,1.561,3.775c1.015,1.026,2.324,1.538,3.759,1.583h0.006h1.14c0,0.25-0.033,0.468-0.093,0.645
	c-0.081,0.282-0.25,0.521-0.501,0.751c-0.17,0.142-0.284,0.373-0.273,0.622c0.017,0.414,0.376,0.742,0.796,0.732
	c1.021-0.044,2.107-0.329,2.962-0.962c0.583-0.425,1.069-1.015,1.338-1.777c0.321,0,4.314,0,4.314-0.011
	c1.136,0,2.241-0.47,3.038-1.268c0.774-0.785,1.261-1.864,1.261-3.043C19.611,9.908,19.518,9.417,19.349,8.948L19.349,8.948z"/>
<path id="TexteAide_1_" display="none" fill="#6F7072" d="M12.833,4.447c-0.516-0.795-1.43-1.288-2.381-1.288
	c-0.79,0-1.496,0.302-2.016,0.829C7.919,4.503,7.612,5.208,7.612,6.004c0,0.425,0.348,0.784,0.784,0.784
	c0.431,0,0.795-0.358,0.795-0.784c0-0.358,0.134-0.672,0.364-0.908c0.224-0.224,0.542-0.369,0.896-0.369
	c0.168,0,0.342,0.044,0.488,0.089c0.229,0.101,0.437,0.258,0.571,0.482c0.285,0.459,0.347,1.244-0.168,1.579
	c-0.062,0.034-0.146,0.079-0.23,0.134C10.39,7.416,9.661,7.84,9.661,9.51c0,0.448,0.359,0.805,0.79,0.805
	c0.432,0,0.791-0.357,0.791-0.805c0-0.762,0.324-0.953,0.649-1.131c0.101-0.057,0.179-0.102,0.297-0.179
	c0.15-0.09,0.28-0.203,0.398-0.314C13.494,6.967,13.504,5.477,12.833,4.447L12.833,4.447z M10.451,10.933L10.451,10.933
	c-0.431,0-0.79,0.357-0.79,0.794c0,0.438,0.359,0.787,0.79,0.787c0.432,0,0.791-0.349,0.791-0.787
	C11.242,11.29,10.883,10.933,10.451,10.933L10.451,10.933z M19.552,8.928L19.552,8.928c-0.179-0.493-0.447-0.941-0.777-1.333
	c-0.247-0.291-0.538-0.56-0.846-0.784l-0.046-0.023C17.7,6.654,17.502,6.542,17.291,6.44c-0.101-0.627-0.281-1.232-0.538-1.792
	L16.73,4.582c-0.364-0.751-0.829-1.435-1.406-2.005c-1.316-1.311-3.114-2.061-4.973-2.061c-1.367,0-2.71,0.403-3.848,1.165
	C6.015,1.993,5.573,2.385,5.181,2.812L5.135,2.856C4.816,3.203,4.537,3.595,4.29,3.999C3.826,4.11,3.377,4.267,2.958,4.491
	c-0.549,0.292-1.037,0.661-1.451,1.11C1.031,6.093,0.65,6.687,0.392,7.348C0.135,7.975,0,8.669,0,9.375
	c0,1.49,0.61,2.868,1.602,3.876c1.042,1.052,2.386,1.577,3.858,1.624h0.006h1.171c0,0.257-0.034,0.48-0.095,0.661
	c-0.084,0.29-0.258,0.536-0.516,0.772c-0.173,0.145-0.292,0.381-0.28,0.638c0.017,0.426,0.387,0.763,0.817,0.752
	c1.048-0.046,2.163-0.338,3.042-0.986c0.6-0.437,1.098-1.042,1.374-1.826c0.33,0,4.429,0,4.429-0.011c1.166,0,2.302-0.481,3.12-1.3
	c0.795-0.807,1.294-1.915,1.294-3.126C19.822,9.913,19.727,9.409,19.552,8.928L19.552,8.928z M17.414,12.456L17.414,12.456
	c-0.521,0.526-1.221,0.84-2.006,0.852h-5.029c-0.402,0-0.745,0.303-0.784,0.693c-0.135,0.65-0.476,1.122-0.919,1.435
	c-0.168,0.124-0.364,0.247-0.56,0.325c0.112-0.505,0.124-1.075,0.04-1.76c-0.051-0.425-0.42-0.729-0.834-0.693H5.472
	c-1.069-0.023-2.039-0.459-2.756-1.177c-0.699-0.705-1.142-1.681-1.142-2.755c0-0.527,0.112-1.009,0.273-1.446
	c0.186-0.47,0.466-0.896,0.802-1.254C2.946,6.362,3.311,6.093,3.691,5.88c0.381-0.19,0.795-0.324,1.232-0.404
	c0.28-0.033,0.504-0.212,0.616-0.459C5.741,4.626,5.999,4.257,6.307,3.91l0.039-0.046c1.014-1.12,2.487-1.758,4.005-1.758
	c1.457,0,2.829,0.561,3.854,1.591c0.447,0.437,0.817,0.975,1.087,1.546l0.032,0.056c0.241,0.537,0.404,1.131,0.466,1.77
	c0.022,0.335,0.257,0.604,0.561,0.684C16.583,7.84,16.797,7.953,17,8.087l0.028,0.022c0.205,0.146,0.396,0.314,0.543,0.493
	c0.212,0.246,0.379,0.548,0.503,0.874c0.112,0.303,0.168,0.627,0.168,0.974C18.242,11.234,17.929,11.929,17.414,12.456
	L17.414,12.456z"/>
<path id="Fond_1_" display="none" fill="#CDCDCD" d="M19.156,8.985L19.156,8.985c-0.171-0.47-0.428-0.897-0.742-1.271
	c-0.236-0.278-0.514-0.535-0.808-0.748l-0.044-0.021c-0.175-0.128-0.362-0.235-0.564-0.333c-0.097-0.598-0.269-1.175-0.515-1.71
	l-0.021-0.063c-0.35-0.716-0.791-1.369-1.342-1.913c-1.257-1.251-2.972-1.967-4.746-1.967c-1.304,0-2.586,0.385-3.671,1.111
	c-0.465,0.299-0.886,0.673-1.261,1.08L5.399,3.192c-0.304,0.33-0.571,0.705-0.806,1.089C4.149,4.389,3.721,4.539,3.321,4.752
	C2.797,5.03,2.332,5.383,1.937,5.811C1.482,6.281,1.12,6.847,0.872,7.478C0.627,8.077,0.499,8.739,0.499,9.413
	c0,1.421,0.583,2.737,1.529,3.699c0.993,1.004,2.276,1.505,3.682,1.55h0.006h1.117c0,0.245-0.032,0.458-0.092,0.63
	c-0.079,0.276-0.245,0.513-0.49,0.736c-0.167,0.141-0.279,0.364-0.268,0.61c0.016,0.406,0.369,0.728,0.78,0.717
	c1-0.042,2.064-0.321,2.902-0.941c0.572-0.415,1.047-0.994,1.311-1.741c0.314,0,4.226,0,4.226-0.011
	c1.112,0,2.195-0.459,2.977-1.241c0.758-0.77,1.234-1.827,1.234-2.981C19.412,9.925,19.322,9.445,19.156,8.985L19.156,8.985z"/>
<path id="Interrogation_1_" display="none" fill="#FFFFFF" stroke="#646566" stroke-width="0.25" d="M12.772,4.577
	c-0.505-0.78-1.4-1.262-2.333-1.262c-0.773,0-1.465,0.295-1.975,0.812C7.959,4.631,7.658,5.321,7.658,6.102
	c0,0.416,0.34,0.768,0.768,0.768c0.422,0,0.78-0.352,0.78-0.768c0-0.352,0.131-0.659,0.356-0.89c0.22-0.219,0.532-0.362,0.877-0.362
	c0.166,0,0.335,0.044,0.478,0.088c0.225,0.099,0.427,0.252,0.56,0.472c0.279,0.449,0.34,1.218-0.165,1.547
	c-0.06,0.032-0.142,0.076-0.226,0.131c-0.707,0.395-1.421,0.812-1.421,2.447c0,0.439,0.351,0.79,0.773,0.79
	c0.424,0,0.774-0.351,0.774-0.79c0-0.746,0.318-0.933,0.637-1.108c0.099-0.055,0.176-0.099,0.29-0.176
	c0.148-0.088,0.275-0.198,0.391-0.307C13.42,7.045,13.431,5.585,12.772,4.577L12.772,4.577z M10.439,10.931L10.439,10.931
	c-0.422,0-0.773,0.35-0.773,0.776c0,0.431,0.351,0.771,0.773,0.771c0.424,0,0.774-0.34,0.774-0.771
	C11.213,11.28,10.863,10.931,10.439,10.931L10.439,10.931z"/>
<path id="Bulle_1_" display="none" fill="#6F7072" d="M19.329,8.966L19.329,8.966c-0.175-0.483-0.439-0.922-0.762-1.307
	c-0.241-0.285-0.526-0.548-0.829-0.768l-0.044-0.022c-0.182-0.131-0.374-0.241-0.582-0.34c-0.098-0.615-0.274-1.208-0.526-1.756
	l-0.021-0.065c-0.357-0.735-0.813-1.405-1.378-1.964c-1.289-1.284-3.05-2.019-4.872-2.019c-1.339,0-2.656,0.395-3.769,1.141
	C6.067,2.172,5.635,2.557,5.25,2.974L5.206,3.018C4.893,3.357,4.619,3.742,4.377,4.137C3.923,4.247,3.483,4.401,3.072,4.62
	C2.535,4.905,2.058,5.267,1.651,5.707C1.186,6.189,0.813,6.771,0.559,7.417C0.307,8.033,0.175,8.712,0.175,9.404
	c0,1.459,0.598,2.81,1.57,3.798c1.02,1.03,2.337,1.545,3.779,1.59H5.53h1.147c0,0.253-0.034,0.471-0.094,0.649
	c-0.082,0.283-0.252,0.524-0.504,0.756c-0.17,0.141-0.285,0.373-0.275,0.625c0.018,0.416,0.379,0.745,0.801,0.735
	c1.026-0.046,2.119-0.33,2.979-0.966c0.587-0.428,1.076-1.021,1.345-1.788c0.325,0,4.339,0,4.339-0.012
	c1.142,0,2.255-0.471,3.058-1.273c0.777-0.79,1.267-1.877,1.267-3.062C19.592,9.93,19.5,9.437,19.329,8.966L19.329,8.966z
	 M17.233,12.422L17.233,12.422c-0.51,0.515-1.195,0.823-1.965,0.835h-4.926c-0.395,0-0.73,0.297-0.768,0.68
	c-0.132,0.637-0.467,1.098-0.901,1.404c-0.165,0.119-0.356,0.241-0.548,0.318c0.109-0.494,0.121-1.055,0.039-1.723
	c-0.049-0.418-0.411-0.716-0.817-0.68H5.536c-1.048-0.023-1.998-0.451-2.701-1.153c-0.685-0.69-1.118-1.646-1.118-2.7
	c0-0.515,0.109-0.987,0.267-1.416c0.183-0.46,0.457-0.877,0.786-1.229c0.29-0.308,0.647-0.57,1.02-0.779
	c0.375-0.187,0.78-0.318,1.208-0.396c0.273-0.033,0.494-0.208,0.603-0.45C5.798,4.751,6.052,4.39,6.353,4.05l0.039-0.045
	c0.993-1.097,2.436-1.722,3.922-1.722c1.427,0,2.771,0.549,3.775,1.559c0.438,0.427,0.802,0.954,1.065,1.514l0.031,0.055
	c0.235,0.526,0.396,1.107,0.456,1.733c0.022,0.33,0.252,0.592,0.549,0.67c0.229,0.088,0.438,0.198,0.637,0.329l0.027,0.022
	c0.202,0.143,0.389,0.308,0.533,0.483c0.207,0.241,0.372,0.537,0.492,0.855c0.11,0.296,0.164,0.614,0.164,0.954
	C18.044,11.227,17.738,11.905,17.233,12.422L17.233,12.422z"/>
<path id="BoutonRechercher_1_" fill="#818180" d="M18.727,16.586l-3.234-3.23c0.521-0.626,0.95-1.333,1.269-2.094
	c0.394-0.954,0.616-2.017,0.616-3.112c0-1.089-0.213-2.13-0.6-3.081l-0.017-0.048c-0.403-0.983-1.003-1.854-1.73-2.597L14.994,2.38
	c-0.75-0.743-1.653-1.36-2.643-1.774h-0.008C11.385,0.202,10.323,0,9.228,0C6.975,0,4.936,0.903,3.46,2.38
	C2.715,3.124,2.105,4.021,1.695,5.031C1.292,5.993,1.074,7.044,1.074,8.149c0,1.083,0.218,2.12,0.6,3.071l0.021,0.041
	c0.41,0.993,1.02,1.896,1.765,2.646h0.009c0.745,0.755,1.647,1.35,2.646,1.773C7.071,16.075,8.128,16.3,9.228,16.3
	c1.105,0,2.157-0.225,3.123-0.618c0.756-0.322,1.457-0.743,2.083-1.263l3.237,3.229c0.292,0.288,0.764,0.288,1.056-0.005
	C19.026,17.351,19.026,16.877,18.727,16.586L18.727,16.586z M13.936,12.857L13.936,12.857L13.936,12.857l-0.013,0.01
	c-0.608,0.596-1.343,1.094-2.146,1.429c-0.785,0.324-1.65,0.511-2.55,0.511c-0.902,0-1.768-0.187-2.55-0.511
	c-0.807-0.335-1.539-0.833-2.161-1.438l0,0c-0.612-0.616-1.11-1.356-1.44-2.169l-0.021-0.037C2.737,9.887,2.567,9.042,2.567,8.149
	c0-0.914,0.181-1.774,0.51-2.55c0.33-0.808,0.818-1.541,1.44-2.167c1.206-1.201,2.874-1.944,4.711-1.944
	c0.9,0,1.765,0.181,2.55,0.499l0,0c0.808,0.335,1.542,0.834,2.158,1.445l0.036,0.037c0.602,0.61,1.079,1.323,1.408,2.13l0.016,0.032
	c0.313,0.776,0.484,1.625,0.484,2.518s-0.172,1.753-0.5,2.539C15.051,11.508,14.552,12.241,13.936,12.857L13.936,12.857z
	 M7.179,3.293L7.179,3.293C6.854,3.421,6.552,3.581,6.286,3.767C5.998,3.963,5.732,4.166,5.5,4.41l0,0l0,0
	c-0.245,0.25-0.462,0.509-0.648,0.786v0.01C4.66,5.483,4.501,5.775,4.373,6.099c-0.105,0.218,0,0.479,0.234,0.579
	c0.223,0.095,0.488-0.01,0.579-0.24c0.111-0.26,0.244-0.51,0.409-0.743c0.159-0.233,0.333-0.452,0.531-0.648
	c0.202-0.191,0.426-0.382,0.659-0.542c0.233-0.154,0.489-0.287,0.733-0.393c0.229-0.101,0.334-0.361,0.234-0.595
	C7.667,3.293,7.401,3.187,7.179,3.293L7.179,3.293z M14.053,7.693L14.053,7.693c-0.245,0-0.447,0.202-0.447,0.457
	c0,0.569-0.107,1.147-0.33,1.669l-0.011,0.021c-0.212,0.509-0.52,0.987-0.945,1.403c-0.413,0.42-0.902,0.732-1.418,0.944
	c-0.526,0.229-1.099,0.336-1.673,0.336c-0.249,0-0.445,0.207-0.445,0.45c0,0.244,0.196,0.447,0.445,0.447
	c0.68,0,1.372-0.133,2.021-0.399c0.626-0.26,1.206-0.635,1.711-1.148c0.498-0.492,0.876-1.077,1.131-1.682l0.01-0.032
	c0.271-0.639,0.403-1.328,0.403-2.009C14.503,7.895,14.307,7.693,14.053,7.693L14.053,7.693z"/>
</svg>
