<?xml version="1.0" encoding="utf-8"?>
<!-- Generator: Adobe Illustrator 12.0.0, SVG Export Plug-In  -->
<!DOCTYPE svg PUBLIC "-//W3C//DTD SVG 1.1//EN" "http://www.w3.org/Graphics/SVG/1.1/DTD/svg11.dtd" [
	<!ENTITY ns_flows "http://ns.adobe.com/Flows/1.0/">
	<!ENTITY ns_svg "http://www.w3.org/2000/svg">
	<!ENTITY ns_xlink "http://www.w3.org/1999/xlink">
]>
<svg  version="1.1" xmlns="&ns_svg;" xmlns:xlink="&ns_xlink;" xmlns:a="http://ns.adobe.com/AdobeSVGViewerExtensions/3.0/"
	 width="26" height="25" viewBox="-0.103 -0.3 26 25" enable-background="new -0.103 -0.3 26 25" xml:space="preserve">
<defs>
</defs>
<path fill="#FFFFFF" d="M7.869,15.031L7.869,15.031l-2.188,6.686c-0.088,0.273-0.066,0.569,0.121,0.811
	c0.295,0.426,0.875,0.513,1.301,0.219l5.691-4.147l5.602,4.104c0.262,0.206,0.567,0.273,0.885,0.185
	c0.492-0.163,0.766-0.688,0.603-1.17l-2.2-6.686l5.712-4.132l0,0c0.229-0.164,0.384-0.438,0.384-0.745
	c0-0.503-0.416-0.919-0.92-0.919l-7.047,0.021l-2.164-6.708c-0.088-0.273-0.286-0.515-0.592-0.591
	c-0.482-0.152-1.006,0.099-1.16,0.591L9.73,9.256L2.749,9.235C2.442,9.212,2.136,9.355,1.95,9.618
	c-0.296,0.405-0.208,0.995,0.197,1.281L7.869,15.031L7.869,15.031z"/>
<path fill="#4A4949" d="M7.15,15.393L7.15,15.393l-2.566,7.844c-0.103,0.32-0.078,0.668,0.142,0.951
	c0.346,0.5,1.026,0.602,1.526,0.256l6.677-4.865l6.574,4.814c0.308,0.242,0.666,0.32,1.038,0.217
	c0.578-0.191,0.898-0.809,0.707-1.373l-2.581-7.844l6.702-4.852l0,0c0.269-0.192,0.449-0.514,0.449-0.874
	c0-0.59-0.488-1.078-1.079-1.078l-8.268,0.025l-2.541-7.87c-0.103-0.32-0.335-0.603-0.694-0.693
	c-0.565-0.179-1.181,0.116-1.361,0.693l-2.541,7.87L1.143,8.59c-0.36-0.026-0.719,0.142-0.938,0.449
	c-0.347,0.475-0.244,1.168,0.231,1.502L7.15,15.393L7.15,15.393z M10.129,10.772L10.129,10.772c0.475,0,0.886-0.309,1.027-0.758
	h0.026l1.746-5.405l1.72,5.405c0.154,0.475,0.629,0.784,1.104,0.758h5.636l-4.621,3.31c-0.374,0.283-0.527,0.783-0.374,1.207
	l1.747,5.432l-4.596-3.363c-0.387-0.271-0.898-0.271-1.259,0l-0.026,0.025l-4.596,3.338l1.771-5.432
	c0.155-0.449-0.024-0.938-0.397-1.207l-0.013-0.025l0,0l-4.596-3.285H10.129L10.129,10.772z"/>
</svg>
