<?xml version="1.0" encoding="utf-8"?>
<!-- Generator: Adobe Illustrator 12.0.0, SVG Export Plug-In  -->
<!DOCTYPE svg PUBLIC "-//W3C//DTD SVG 1.1//EN" "http://www.w3.org/Graphics/SVG/1.1/DTD/svg11.dtd" [
	<!ENTITY ns_flows "http://ns.adobe.com/Flows/1.0/">
	<!ENTITY ns_svg "http://www.w3.org/2000/svg">
	<!ENTITY ns_xlink "http://www.w3.org/1999/xlink">
]>
<svg  version="1.1" xmlns="&ns_svg;" xmlns:xlink="&ns_xlink;" xmlns:a="http://ns.adobe.com/AdobeSVGViewerExtensions/3.0/"
	 width="26" height="26" viewBox="-0.047 -0.37 26 26" enable-background="new -0.047 -0.37 26 26" xml:space="preserve">
<defs>
</defs>
<polygon id="Glisser_6_" fill="#737373" points="10.995,0 10.995,1.777 8.885,1.777 8.885,4.165 10.939,4.332 10.995,10.774 
	4.386,10.719 4.442,8.885 1.833,8.94 1.833,10.774 0,10.774 0.057,15.272 1.833,15.272 1.833,17.327 4.331,17.327 4.331,15.272 
	10.995,15.272 10.995,21.492 8.885,21.548 8.885,23.88 10.995,23.88 10.995,25.545 15.326,25.601 15.326,23.88 17.381,23.88 
	17.381,21.548 15.326,21.548 15.326,15.272 21.544,15.272 21.656,17.327 24.099,17.327 24.099,15.272 25.875,15.272 25.875,10.774 
	24.099,10.774 24.099,8.94 21.656,8.94 21.656,10.774 15.326,10.774 15.326,4.22 17.381,4.275 17.381,1.777 15.326,1.777 15.271,0 
	"/>
</svg>
