<?xml version="1.0" encoding="UTF-8" standalone="no"?>
<!DOCTYPE svg PUBLIC "-//W3C//DTD SVG 1.1//EN" "http://www.w3.org/Graphics/SVG/1.1/DTD/svg11.dtd">
<svg width="100%" height="100%" viewBox="0 0 22 20" version="1.1" xmlns="http://www.w3.org/2000/svg" xmlns:xlink="http://www.w3.org/1999/xlink" xml:space="preserve" xmlns:serif="http://www.serif.com/" style="fill-rule:evenodd;clip-rule:evenodd;stroke-linejoin:round;stroke-miterlimit:2;">
    <g transform="matrix(5.53572,0,0,5.57812,-883.872,-1901.06)">
        <path d="M163.109,342.809C163.031,342.809 162.97,342.871 162.97,342.948L162.97,344.109L159.943,344.109L159.943,341.083L161.105,341.083C161.181,341.083 161.243,341.02 161.243,340.945C161.243,340.869 161.181,340.807 161.105,340.807L159.805,340.807C159.73,340.807 159.667,340.869 159.667,340.945L159.667,344.247C159.667,344.322 159.73,344.385 159.805,344.385L163.109,344.385C163.183,344.385 163.246,344.322 163.246,344.247L163.246,342.948C163.246,342.87 163.184,342.809 163.109,342.809ZM163.163,340.807L161.609,340.807C161.588,340.807 161.566,340.817 161.55,340.831C161.517,340.863 161.517,340.915 161.55,340.948L161.988,341.386L161.318,342.059C161.285,342.091 161.285,342.143 161.318,342.176L161.871,342.729L161.876,342.736C161.909,342.766 161.96,342.766 161.993,342.736L162.664,342.062L163.104,342.501C163.118,342.516 163.139,342.526 163.162,342.526C163.207,342.526 163.245,342.488 163.245,342.441L163.245,340.889C163.246,340.844 163.208,340.807 163.163,340.807Z" style="fill:rgb(112,113,115);fill-rule:nonzero;"/>
    </g>
</svg>
