<?xml version="1.0" encoding="utf-8"?>
<!-- Generator: Adobe Illustrator 12.0.0, SVG Export Plug-In  -->
<!DOCTYPE svg PUBLIC "-//W3C//DTD SVG 1.1//EN" "http://www.w3.org/Graphics/SVG/1.1/DTD/svg11.dtd" [
	<!ENTITY ns_flows "http://ns.adobe.com/Flows/1.0/">
	<!ENTITY ns_svg "http://www.w3.org/2000/svg">
	<!ENTITY ns_xlink "http://www.w3.org/1999/xlink">
]>
<svg  version="1.1" xmlns="&ns_svg;" xmlns:xlink="&ns_xlink;" xmlns:a="http://ns.adobe.com/AdobeSVGViewerExtensions/3.0/"
	 width="24" height="26" viewBox="-0.816 -0.069 24 26" enable-background="new -0.816 -0.069 24 26" xml:space="preserve">
<defs>
</defs>
<g>
	<g>
		<path fill="#4B4A4A" d="M20.754,20.767c-1.43-1.367-3.424-1.972-4.607-2.077c-0.231-0.025-0.458-0.118-0.6-0.26
			c-0.1-0.107-0.17-0.231-0.191-0.369c0.912-0.755,1.33-1.795,1.677-2.688c0.178-0.432,0.333-0.808,0.438-0.906v-0.007l0.014-0.011
			l0.015-0.017c0.423-0.375,1.007-1.111,1.316-1.933c0.312-0.834,0.382-1.783-0.155-2.631c0.169-0.594,0.296-1.196,0.368-1.755
			c0.099-0.721,0.099-1.4-0.014-2.052c-0.136-0.877-0.766-2.364-1.643-3.382c-0.712-0.849-1.627-1.43-2.678-1.337
			c-0.505-0.716-1.344-1.054-2.226-1.21c-0.773-0.148-1.57-0.135-2.151-0.127C8.761,0.039,7.374,0.385,6.255,1.15
			C5.208,1.851,4.387,2.884,3.906,4.292L3.863,4.377C3.525,5.381,3.354,6.479,3.368,7.561c0,0.849,0.128,1.67,0.375,2.42
			c-0.467,0.821-0.39,1.72-0.078,2.533c0.305,0.821,0.892,1.543,1.309,1.927v0.008h0.007l0.008,0.005l0.021,0.006
			c0.084,0.105,0.241,0.474,0.424,0.913c0.354,0.896,0.793,1.961,1.727,2.732c-0.029,0.112-0.084,0.234-0.177,0.325
			c-0.149,0.142-0.36,0.234-0.601,0.26c-1.19,0.105-3.186,0.71-4.615,2.077C0.743,21.761,0,23.121,0,24.934
			c0,0.548,0.454,0.997,0.991,0.997c0.005,0,0.009-0.003,0.015-0.003c0,0,20.442,0.003,20.527,0.003c0.537,0,0.99-0.449,0.99-0.99
			C22.523,23.121,21.774,21.755,20.754,20.767z"/>
	</g>
</g>
</svg>
