<?xml version="1.0" encoding="utf-8"?>
<!-- Generator: Adobe Illustrator 12.0.0, SVG Export Plug-In  -->
<!DOCTYPE svg PUBLIC "-//W3C//DTD SVG 1.1//EN" "http://www.w3.org/Graphics/SVG/1.1/DTD/svg11.dtd" [
	<!ENTITY ns_flows "http://ns.adobe.com/Flows/1.0/">
	<!ENTITY ns_svg "http://www.w3.org/2000/svg">
	<!ENTITY ns_xlink "http://www.w3.org/1999/xlink">
]>
<svg  version="1.1" xmlns="&ns_svg;" xmlns:xlink="&ns_xlink;" xmlns:a="http://ns.adobe.com/AdobeSVGViewerExtensions/3.0/"
	 width="27" height="27" viewBox="-0.115 -0.949 27 27" enable-background="new -0.115 -0.949 27 27" xml:space="preserve">
<defs>
</defs>
<circle fill="#FFFFFF" cx="11.819" cy="11.827" r="10.875"/>
<path id="Rechercher_3_" fill="#4A4949" d="M25.662,24.11l-4.702-4.696c0.758-0.91,1.381-1.938,1.845-3.042
	c0.571-1.39,0.896-2.935,0.896-4.525c0-1.583-0.31-3.097-0.873-4.479l-0.023-0.069c-0.587-1.428-1.459-2.695-2.517-3.775
	l-0.055-0.063c-1.09-1.081-2.402-1.977-3.839-2.579H16.38C14.989,0.293,13.445,0,11.854,0C8.579,0,5.614,1.313,3.468,3.459
	c-1.082,1.082-1.97,2.387-2.565,3.854C0.316,8.711,0,10.24,0,11.847c0,1.575,0.316,3.081,0.872,4.463l0.031,0.063
	c0.595,1.443,1.483,2.757,2.565,3.846h0.015c1.082,1.097,2.394,1.961,3.846,2.579c1.39,0.572,2.927,0.896,4.525,0.896
	c1.606,0,3.135-0.323,4.541-0.896c1.097-0.47,2.116-1.082,3.027-1.838l4.704,4.693c0.425,0.418,1.111,0.418,1.536-0.007
	C26.095,25.222,26.095,24.534,25.662,24.11L25.662,24.11z M18.698,18.688L18.698,18.688L18.698,18.688l-0.018,0.016
	c-0.886,0.865-1.954,1.589-3.121,2.077c-1.141,0.472-2.4,0.742-3.706,0.742c-1.312,0-2.571-0.271-3.707-0.742
	c-1.174-0.488-2.239-1.212-3.143-2.093l0,0c-0.889-0.896-1.614-1.97-2.094-3.151l-0.03-0.053c-0.463-1.112-0.71-2.34-0.71-3.638
	c0-1.329,0.263-2.579,0.741-3.707c0.479-1.174,1.19-2.24,2.094-3.151c1.753-1.746,4.178-2.826,6.849-2.826
	c1.306,0,2.565,0.262,3.706,0.726l0,0c1.176,0.487,2.241,1.213,3.139,2.101l0.053,0.054c0.873,0.888,1.566,1.923,2.048,3.097
	l0.021,0.047c0.455,1.127,0.703,2.362,0.703,3.66c0,1.297-0.248,2.548-0.725,3.69C20.317,16.728,19.591,17.793,18.698,18.688
	L18.698,18.688z M8.873,4.788L8.873,4.788c-0.472,0.186-0.91,0.417-1.298,0.688C7.158,5.762,6.773,6.055,6.433,6.41l0,0l0,0
	C6.077,6.773,5.761,7.151,5.49,7.553v0.016C5.213,7.97,4.981,8.395,4.795,8.865c-0.153,0.317,0,0.696,0.34,0.842
	c0.325,0.139,0.71-0.015,0.843-0.349c0.162-0.377,0.354-0.74,0.593-1.08C6.803,7.94,7.058,7.622,7.344,7.336
	C7.637,7.059,7.963,6.78,8.301,6.549c0.34-0.224,0.711-0.417,1.067-0.571C9.7,5.831,9.854,5.452,9.708,5.113
	C9.584,4.788,9.198,4.633,8.873,4.788L8.873,4.788z M18.866,11.182L18.866,11.182c-0.355,0-0.648,0.294-0.648,0.665
	c0,0.827-0.155,1.668-0.479,2.426l-0.017,0.03c-0.307,0.74-0.754,1.436-1.374,2.039c-0.601,0.609-1.311,1.064-2.062,1.374
	c-0.764,0.333-1.597,0.486-2.432,0.486c-0.363,0-0.648,0.302-0.648,0.656s0.285,0.648,0.648,0.648c0.989,0,1.994-0.192,2.936-0.579
	c0.91-0.379,1.753-0.925,2.487-1.668c0.724-0.718,1.273-1.568,1.643-2.448l0.016-0.046c0.395-0.926,0.587-1.931,0.587-2.919
	C19.522,11.476,19.237,11.182,18.866,11.182L18.866,11.182z"/>
</svg>
